<?xml version="1.0" encoding="utf-8"?>
<!-- Generator: Adobe Illustrator 24.0.2, SVG Export Plug-In . SVG Version: 6.00 Build 0)  -->
<svg version="1.1" id="Layer_1" xmlns="http://www.w3.org/2000/svg" xmlns:xlink="http://www.w3.org/1999/xlink" x="0px" y="0px"
	 viewBox="0 0 188.5 92.1" style="enable-background:new 0 0 188.5 92.1;" xml:space="preserve">
<style type="text/css">
	.st0{fill:#FDC616;}
</style>
<rect class="st0" width="188.5" height="92.1"/>
<g>
	<rect x="137.9" y="24.8" width="3.8" height="19.7"/>
	<polygon points="80.7,24.8 84.6,24.8 84.6,33 92.8,33 92.8,24.8 96.7,24.8 96.7,44.3 92.8,44.3 92.8,36.1 84.6,36.1 84.6,44.3 
		80.7,44.3 	"/>
	<polygon points="27,38.9 27,33 27,28 27,24.8 30.1,24.8 41,24.8 41,28 30.6,28 30.1,28 30.1,33 30.6,33 39.5,33 39.5,36.1 
		30.6,36.1 30.6,41.2 41,41.2 41,44.3 27,44.3 	"/>
	<path d="M42.6,60.8c0,2.3-0.7,4.1-2,5.4C39.3,67.3,37.4,68,35,68c-2.6,0-4.6-0.7-6.1-2.2s-2.2-3.7-2.2-6.5v-2.8
		c0-2.8,0.7-5,2.2-6.5s3.5-2.2,6.1-2.2c2.3,0,4.1,0.5,5.4,1.7s2,2.6,2,4.5v0.2H40V54c0-1.1-0.5-2.2-1.3-2.8c-0.8-0.7-2-1-3.7-1
		c-1.8,0-3.3,0.5-4.3,1.5s-1.3,2.6-1.3,4.8v2.8c0,2.2,0.5,3.7,1.3,4.6c1,1,2.3,1.5,4.3,1.5c3.3,0,5-1.7,5-4.8v-1.1h-5.3v-2.2h8v3.5
		H42.6z"/>
	<path d="M44.7,41.2c-0.7-1.1-1-2.3-1-3.8V24.8h3.8v12.4c0,1.3,0.4,2.3,1.1,3c0.7,0.7,1.8,1,3.2,1s2.3-0.4,3.2-1
		c0.8-0.7,1.1-1.7,1.1-3V24.8H60v12.6c0,1.5-0.4,2.8-1,3.8c-0.7,1.1-1.7,2-2.8,2.5c-1.1,0.7-2.6,0.8-4.1,0.8c-1.7,0-3-0.4-4.1-0.8
		C46.2,43.2,45.4,42.4,44.7,41.2z"/>
	<path d="M57.3,59.1c1.3-0.4,2.5-1,3.2-1.8c0.7-1,1.1-2.2,1.1-3.5c0-1.8-0.5-3.2-1.7-4.1s-2.8-1.5-5-1.5h-8.4v19.5h2.6v-8.3h5.6
		l4.5,8.3h3L57.3,59.1z M49,57.1v-6.7h5.8c1.5,0,2.5,0.4,3.2,0.8s1,1.3,1,2.5c0,1.1-0.4,2-1,2.5c-0.6,0.4-1.7,0.8-3,0.8L49,57.1
		C49,56.9,49,57.1,49,57.1z"/>
	<path d="M76.6,26.3c-1.3-1-3-1.7-5.2-1.7H63l0,0v19.7h3.8v-7.4h4.6c2.3,0,4.1-0.5,5.3-1.7c1.3-1,1.8-2.5,1.8-4.5
		C78.5,28.9,77.8,27.4,76.6,26.3z M71.5,33.6h-5V28h5c1,0,1.8,0.2,2.3,0.7c0.4,0.5,0.8,1.1,0.8,2.2C74.8,32.8,73.6,33.7,71.5,33.6z"
		/>
	<polygon points="79.1,67.7 72.5,51.5 66,67.7 63.2,67.7 71.5,48.2 73.6,48.2 81.8,67.7 	"/>
	<path d="M97.3,49.7c-1.1-1-2.8-1.5-5-1.5h-8.4v19.5h2.6v-7.8h5.8c2.2,0,3.8-0.5,5-1.5c1.1-1,1.7-2.5,1.7-4.3
		C98.9,52.1,98.5,50.6,97.3,49.7z M95.5,56.8c-0.7,0.5-1.7,0.8-3.2,0.8h-6v-7.1h5.8c1.5,0,2.5,0.4,3.2,0.8c0.7,0.5,1,1.5,1,2.8
		C96.5,55.3,96.1,56.2,95.5,56.8z"/>
	<path d="M114,26.5c-1.5-1.5-3.5-2.2-6-2.2c-2.6,0-4.6,0.7-6,2.2c-1.5,1.5-2.2,3.7-2.2,6.5l0,0v3.2c0,2.8,0.7,5,2.2,6.5
		s3.5,2.2,6,2.2s4.6-0.7,6-2.2c1.5-1.5,2.2-3.7,2.2-6.5V33C116.2,30.2,115.5,28,114,26.5z M112.3,36.1c0,3.5-1.5,5.3-4.5,5.3
		c-1.5,0-2.6-0.5-3.3-1.3c-0.7-0.8-1.1-2.2-1.1-3.9v-2.8c0-1.8,0.4-3.3,1.1-4.1c0.7-1,1.8-1.3,3.3-1.3c3,0,4.5,1.8,4.5,5.6V36.1z"/>
	<polygon points="117.1,67.7 114.5,67.7 114.5,59 104.5,59 104.5,67.7 101.9,67.7 101.9,48.2 104.5,48.2 104.5,56.6 114.5,56.6 
		114.5,48.2 117.1,48.2 	"/>
	<rect x="121.4" y="48.2" width="2.6" height="19.5"/>
	<path d="M130.5,36.3c1.3-0.5,2.3-1.1,3-2c0.7-1,1-2.2,1-3.5c0-2-0.7-3.5-1.8-4.5c-1.3-1-3-1.5-5.2-1.5h-8.6v19.7h3.8v-7.8l0,0h3.9
		l4.3,7.8h4.5L130.5,36.3z M127.7,33.5h-5v-5.4h5c1,0,1.8,0.2,2.3,0.7s0.8,1.1,0.8,2C130.9,32.6,129.9,33.5,127.7,33.5z"/>
	<path d="M143.7,54.3h-2.5v-0.2c0-1.3-0.5-2.2-1.3-3c-0.8-0.7-2.2-1-3.8-1c-1.8,0-3.3,0.5-4.3,1.5s-1.3,2.6-1.3,4.8v2.8
		c0,2.2,0.5,3.7,1.3,4.6c1,1,2.3,1.5,4.3,1.5c1.7,0,2.8-0.4,3.8-1c0.8-0.7,1.3-1.7,1.3-3v-0.2h2.5v0.2c0,2-0.7,3.5-2,4.6
		s-3.2,1.7-5.6,1.7c-2.6,0-4.6-0.7-6-2.2c-1.5-1.5-2.2-3.7-2.2-6.5v-2.8c0-2.8,0.7-5,2.2-6.5s3.5-2.2,6.1-2.2c2.3,0,4.1,0.5,5.6,1.7
		C143,50.6,143.7,52.1,143.7,54.3L143.7,54.3L143.7,54.3z"/>
	<path d="M159.3,66.4c-1.3,1-3.3,1.5-5.6,1.5s-4.1-0.5-5.4-1.5c-1.3-1-2-2.5-2.2-4.3h2.6c0.2,1.3,0.7,2.2,1.5,2.8
		c0.8,0.5,2.2,0.8,3.7,0.8c3.3,0,5-1.1,5-3.3c0-1-0.4-1.7-1-2.3c-0.7-0.5-1.7-0.8-3-1l-2.6-0.4c-3.8-0.5-5.6-2.2-5.6-5.3
		c0-1.8,0.7-3.2,2-4.1c1.3-1,3-1.5,5.3-1.5c2.2,0,3.8,0.5,5.2,1.3c1.3,0.8,2,2.3,2.2,4.1H159c-0.2-1.1-0.5-2-1.3-2.5s-2-0.8-3.5-0.8
		s-2.6,0.4-3.5,0.8c-0.8,0.5-1.1,1.3-1.1,2.3c0,0.8,0.4,1.7,1,2.2s1.5,0.8,2.8,1l2.8,0.4c3.8,0.5,5.8,2.3,5.8,5.3
		C161.4,63.9,160.7,65.3,159.3,66.4z"/>
	<path d="M161.4,31.3h-3.8v-0.2c0-1.1-0.4-2-1.1-2.6c-0.8-0.6-1.8-1-3.2-1c-1.5,0-2.6,0.5-3.5,1.3c-0.8,1-1.1,2.3-1.1,4.1v2.8
		c0,1.8,0.4,3.2,1.1,3.9s2,1.3,3.5,1.3c1.3,0,2.3-0.4,3.2-1c0.7-0.7,1.1-1.5,1.1-2.5v-0.2h3.7v0.2c0,2.2-0.7,3.8-2.2,5
		c-1.5,1.1-3.3,1.8-5.8,1.8c-2.6,0-4.6-0.7-6.1-2.2s-2.2-3.7-2.2-6.5v-3.2c0-2.8,0.8-5,2.2-6.5c1.5-1.5,3.5-2.2,6.1-2.2
		c2.5,0,4.3,0.7,5.8,1.8s2.2,2.8,2.2,5L161.4,31.3L161.4,31.3z"/>
</g>
</svg>
