<?xml version="1.0" encoding="utf-8"?>
<!-- Generator: Adobe Illustrator 24.0.2, SVG Export Plug-In . SVG Version: 6.00 Build 0)  -->
<svg version="1.1" xmlns="http://www.w3.org/2000/svg" xmlns:xlink="http://www.w3.org/1999/xlink" x="0px" y="0px"
	 viewBox="0 0 150 128" style="enable-background:new 0 0 150 128;" xml:space="preserve">
<style type="text/css">
	.st0{fill:#FDC513;}
	.st1{fill:#808285;}
	.st2{enable-background:new    ;}
	.st3{fill:#353535;}
	.st4{fill:#3D3D3D;}
	.st5{fill:#5C5C5C;}
</style>
<g id="Layer_2">
	<rect x="0" width="150" height="128"/>
</g>
<g id="Layer_1">
	<rect x="701.9" y="-46.4" width="49.4" height="49.4"/>
	<g>
		<rect x="527.6" y="-69.4" class="st0" width="164.8" height="165"/>
	</g>
	<g>
		<g>
			<polygon class="st1" points="810.4,72.3 801.8,75.2 753.2,76.9 761.8,74 			"/>
		</g>
		<g>
			<polygon class="st1" points="761.8,74 753.2,76.9 752.7,67 761.3,64.1 			"/>
		</g>
		<g>
			<polygon points="810,62.4 810.4,72.3 761.8,74 761.3,64.1 			"/>
		</g>
		<g class="st2">
			<g>
				<polygon class="st1" points="868.8,70.2 860.2,73.2 811.5,74.9 820.1,71.9 				"/>
			</g>
			<g>
				<polygon class="st1" points="820.1,71.9 811.5,74.9 811.1,65 819.7,62.1 				"/>
			</g>
			<g>
				<polygon points="868.3,60.4 868.8,70.2 820.1,71.9 819.7,62.1 				"/>
			</g>
		</g>
		<g>
			<polygon class="st1" points="860.3,100.2 851.8,103.1 851.3,93.2 859.9,90.3 			"/>
		</g>
		<g>
			<polygon class="st1" points="859.9,90.3 851.3,93.2 822.1,94.2 830.7,91.3 			"/>
		</g>
		<g>
			<polygon class="st1" points="830.7,91.3 822.1,94.2 821.7,84.4 830.3,81.5 			"/>
		</g>
		<g>
			<polygon class="st1" points="821.9,111.4 813.3,114.3 812.9,104.4 821.4,101.5 			"/>
		</g>
		<g>
			<polygon class="st1" points="870.5,109.7 861.9,112.6 813.3,114.3 821.9,111.4 			"/>
		</g>
		<g>
			<polygon points="869.2,80.1 869.3,83 869.6,90 870.1,99.8 870.4,107.2 870.5,109.7 821.9,111.4 821.4,101.5 860.3,100.2 
				859.9,90.3 830.7,91.3 830.3,81.5 			"/>
		</g>
		<g>
			<polygon class="st1" points="801.5,92.3 793,95.3 763.8,96.3 772.3,93.4 			"/>
		</g>
		<polygon class="st1" points="763.4,110.5 763.1,103.6 762.6,93.7 762.3,86.3 762.2,83.8 753.6,86.8 753.7,89.2 754,96.6 
			754.5,106.5 754.8,113.4 754.9,116.3 763.5,113.4 		"/>
		<g>
			<polygon class="st1" points="812.1,111.7 803.6,114.6 754.9,116.3 763.5,113.4 			"/>
		</g>
		<g>
			<polygon points="801.1,82.5 801.5,92.3 772.3,93.4 772.8,103.2 811.7,101.9 812.1,111.7 763.5,113.4 763.4,110.5 763.1,103.6 
				762.6,93.7 762.3,86.3 762.2,83.8 			"/>
		</g>
	</g>
	<rect x="302.3" y="113.8" class="st0" width="21.4" height="22.4"/>
	<g>
		<rect x="177.9" y="-69.4" class="st0" width="164.8" height="165"/>
	</g>
	<g>
		<rect x="353.3" y="-69.4" class="st0" width="164.8" height="165"/>
	</g>
	<g>
		<g>
			<rect x="381.4" y="-13.1" width="49.4" height="9.9"/>
			<rect x="440.7" y="-13.1" width="49.4" height="9.9"/>
			<polygon points="391.3,26.4 391.3,16.5 420.9,16.5 420.9,6.6 381.4,6.6 381.4,9.1 381.4,16.5 381.4,26.4 381.4,33.4 381.4,36.3 
				430.8,36.3 430.8,26.4 			"/>
			<polygon points="450.6,6.6 450.6,16.5 480.2,16.5 480.2,26.4 440.7,26.4 440.7,36.3 490.1,36.3 490.1,33.8 490.1,26.4 
				490.1,16.5 490.1,9.5 490.1,6.6 			"/>
		</g>
	</g>
	<g>
		<path d="M382.7,44.3h3.2v1.2h-3.2v1.8h3.7v1.2h-5v-7.1h5v1.2h-3.7V44.3z"/>
		<path d="M388.3,47.3c-0.2-0.4-0.4-0.9-0.4-1.4v-4.5h1.3v4.5c0,0.5,0.1,0.8,0.4,1.1c0.3,0.3,0.6,0.4,1.1,0.4c0.5,0,0.9-0.1,1.1-0.4
			c0.3-0.3,0.4-0.6,0.4-1.1v-4.5h1.3v4.5c0,0.5-0.1,1-0.4,1.4c-0.2,0.4-0.6,0.7-1,0.9c-0.4,0.2-0.9,0.3-1.5,0.3
			c-0.6,0-1.1-0.1-1.5-0.3C388.8,48,388.5,47.7,388.3,47.3z"/>
		<path d="M400.9,43.6c0,0.7-0.2,1.2-0.7,1.6c-0.4,0.4-1.1,0.6-1.9,0.6h-1.7v2.7h-1.3v-7.1h3c0.8,0,1.4,0.2,1.9,0.6
			C400.7,42.3,400.9,42.9,400.9,43.6z M399.3,42.8c-0.2-0.2-0.5-0.3-0.8-0.3h-1.8v2h1.8c0.8,0,1.1-0.3,1.1-1
			C399.6,43.2,399.5,43,399.3,42.8z"/>
		<path d="M407.9,48.4h-1.3v-3h-3v3h-1.3v-7.1h1.3v2.9h3v-2.9h1.3V48.4z"/>
		<path d="M409.6,45.4v-1.1c0-1,0.3-1.8,0.8-2.3c0.5-0.5,1.2-0.8,2.2-0.8c0.9,0,1.6,0.3,2.1,0.8c0.5,0.5,0.8,1.3,0.8,2.3v1.1
			c0,1-0.3,1.8-0.8,2.3c-0.5,0.5-1.3,0.8-2.2,0.8c-0.9,0-1.6-0.3-2.1-0.8C409.9,47.2,409.6,46.5,409.6,45.4z M414.1,44.4
			c0-1.3-0.5-2-1.6-2c-0.5,0-0.9,0.2-1.2,0.5c-0.3,0.3-0.4,0.8-0.4,1.5v1c0,0.6,0.1,1.1,0.4,1.4c0.3,0.3,0.7,0.5,1.2,0.5
			c1.1,0,1.6-0.6,1.6-1.9V44.4z"/>
		<path d="M418.4,45.7v2.8H417v-7.1h3.1c0.8,0,1.4,0.2,1.8,0.6c0.4,0.4,0.7,0.9,0.7,1.6c0,0.5-0.1,0.9-0.4,1.3
			c-0.2,0.3-0.6,0.6-1.1,0.7l1.8,2.9h-1.6l-1.5-2.8H418.4z M420.2,44.5c0.8,0,1.1-0.3,1.1-1c0-0.3-0.1-0.6-0.3-0.7
			c-0.2-0.2-0.5-0.2-0.8-0.2h-1.8v2H420.2z"/>
		<path d="M425.7,41.4v7.1h-1.3v-7.1H425.7z"/>
		<path d="M427.4,45.4v-1.1c0-1,0.3-1.8,0.8-2.3c0.5-0.5,1.3-0.8,2.2-0.8c0.9,0,1.6,0.2,2.1,0.6c0.5,0.4,0.8,1,0.8,1.8v0.1h-1.3v0
			c0-0.4-0.1-0.7-0.4-0.9c-0.3-0.2-0.6-0.3-1.1-0.3c-0.6,0-1,0.2-1.3,0.5c-0.3,0.3-0.4,0.8-0.4,1.5v1c0,0.6,0.1,1.1,0.4,1.4
			c0.3,0.3,0.7,0.5,1.3,0.5c0.5,0,0.8-0.1,1.1-0.3s0.4-0.5,0.4-0.9V46h1.3v0.1c0,0.8-0.3,1.4-0.8,1.8c-0.5,0.4-1.2,0.6-2.1,0.6
			c-0.9,0-1.7-0.3-2.2-0.8C427.7,47.2,427.4,46.5,427.4,45.4z"/>
		<path d="M437.7,45.4v-1c0-1,0.3-1.8,0.8-2.3c0.5-0.5,1.2-0.8,2.2-0.8c0.8,0,1.5,0.2,2,0.6c0.5,0.4,0.7,0.9,0.7,1.6v0.1h-0.9v0
			c0-0.4-0.2-0.8-0.5-1c-0.3-0.3-0.8-0.4-1.4-0.4c-0.7,0-1.2,0.2-1.5,0.6c-0.3,0.4-0.5,1-0.5,1.8v1c0,0.8,0.2,1.3,0.5,1.7
			c0.3,0.4,0.9,0.6,1.5,0.6c1.2,0,1.8-0.6,1.8-1.7v-0.4h-2v-0.8h2.9v1.1c0,0.9-0.2,1.5-0.7,2c-0.5,0.4-1.2,0.7-2,0.7
			c-0.9,0-1.7-0.3-2.2-0.8C438,47.2,437.7,46.4,437.7,45.4z"/>
		<path d="M446.2,45.4v3h-0.9v-7.1h3.1c0.8,0,1.4,0.2,1.8,0.5c0.4,0.3,0.6,0.8,0.6,1.5c0,0.5-0.1,0.9-0.4,1.3
			c-0.3,0.3-0.6,0.6-1.2,0.7l1.7,3.1h-1.1l-1.6-3H446.2z M448.4,44.6c0.5,0,0.9-0.1,1.1-0.3c0.2-0.2,0.4-0.5,0.4-0.9
			c0-0.4-0.1-0.7-0.4-0.9c-0.2-0.2-0.6-0.3-1.1-0.3h-2.1v2.4H448.4z"/>
		<path d="M453.5,46.8l-0.6,1.6h-1l2.9-7.1h0.8l3,7.1h-1l-0.6-1.6H453.5z M455.3,42.5l-1.4,3.5h2.8L455.3,42.5z"/>
		<path d="M465.4,43.5c0,0.7-0.2,1.2-0.6,1.6c-0.4,0.4-1,0.5-1.8,0.5h-2.1v2.8h-0.9v-7.1h3.1c0.8,0,1.4,0.2,1.8,0.5
			C465.2,42.3,465.4,42.8,465.4,43.5z M464.5,43.5c0-0.5-0.1-0.8-0.4-1c-0.2-0.2-0.6-0.3-1.2-0.3h-2.1v2.6h2.1
			c0.5,0,0.9-0.1,1.1-0.3C464.4,44.3,464.5,43.9,464.5,43.5z"/>
		<path d="M472.5,48.4h-0.9v-3.2h-3.7v3.2H467v-7.1h0.9v3.1h3.7v-3.1h0.9V48.4z"/>
		<path d="M475.5,41.4v7.1h-0.9v-7.1H475.5z"/>
		<path d="M477.4,45.4v-1c0-1,0.3-1.8,0.8-2.3c0.5-0.5,1.3-0.8,2.2-0.8c0.9,0,1.5,0.2,2,0.6c0.5,0.4,0.7,0.9,0.7,1.7v0.1h-0.9v0
			c0-0.5-0.2-0.8-0.5-1.1c-0.3-0.2-0.8-0.4-1.4-0.4c-0.7,0-1.2,0.2-1.5,0.6c-0.3,0.4-0.5,1-0.5,1.8v1c0,0.8,0.2,1.3,0.5,1.7
			c0.3,0.4,0.9,0.6,1.5,0.6c0.6,0,1-0.1,1.4-0.4c0.3-0.2,0.5-0.6,0.5-1.1v0h0.9v0.1c0,0.7-0.2,1.3-0.7,1.7c-0.5,0.4-1.2,0.6-2,0.6
			c-0.9,0-1.7-0.3-2.2-0.8C477.7,47.2,477.4,46.4,477.4,45.4z"/>
		<path d="M484.6,46.4h0.9c0,0.5,0.2,0.8,0.5,1c0.3,0.2,0.8,0.3,1.3,0.3c1.2,0,1.8-0.4,1.8-1.2c0-0.4-0.1-0.6-0.3-0.8
			c-0.2-0.2-0.6-0.3-1.1-0.4l-1-0.1c-1.4-0.2-2.1-0.8-2.1-1.9c0-0.6,0.2-1.1,0.7-1.5c0.5-0.4,1.1-0.5,1.9-0.5c0.8,0,1.4,0.2,1.8,0.5
			c0.4,0.3,0.7,0.8,0.8,1.5h-0.9c0-0.4-0.2-0.7-0.5-0.9c-0.3-0.2-0.7-0.3-1.2-0.3c-0.6,0-1,0.1-1.3,0.3c-0.3,0.2-0.4,0.5-0.4,0.9
			c0,0.3,0.1,0.6,0.3,0.8c0.2,0.2,0.6,0.3,1,0.4l1,0.1c1.4,0.2,2.1,0.8,2.1,1.9c0,0.7-0.2,1.2-0.7,1.5c-0.5,0.4-1.2,0.5-2,0.5
			c-0.8,0-1.5-0.2-2-0.5C484.9,47.6,484.6,47.1,484.6,46.4z"/>
		<path d="M388.3,56.2v0.5h-0.6v-4.7h0.6v1.7c0.1-0.2,0.3-0.3,0.5-0.4c0.2-0.1,0.4-0.1,0.6-0.1c0.4,0,0.8,0.1,1.1,0.4
			c0.3,0.3,0.4,0.7,0.4,1.2V55c0,0.5-0.1,0.9-0.4,1.2c-0.3,0.3-0.6,0.4-1.1,0.4c-0.3,0-0.5,0-0.7-0.1
			C388.5,56.5,388.4,56.3,388.3,56.2z M390.3,55v-0.3c0-0.4-0.1-0.7-0.3-0.9c-0.2-0.2-0.4-0.3-0.7-0.3c-0.3,0-0.6,0.1-0.7,0.3
			c-0.2,0.2-0.3,0.5-0.3,0.8v0.5c0,0.3,0.1,0.6,0.3,0.8c0.2,0.2,0.4,0.3,0.8,0.3c0.3,0,0.5-0.1,0.7-0.3
			C390.2,55.7,390.3,55.4,390.3,55z"/>
		<path d="M392.2,53.1v0.5c0.1-0.2,0.3-0.3,0.5-0.4c0.2-0.1,0.4-0.1,0.6-0.1c0.1,0,0.2,0,0.3,0v0.6c-0.1,0-0.3-0.1-0.4-0.1
			c-0.3,0-0.5,0.1-0.7,0.3s-0.3,0.4-0.3,0.7v2h-0.6v-3.5H392.2z"/>
		<path d="M397,54.3v2.3h-0.6v-0.4c-0.2,0.3-0.6,0.4-1.1,0.4c-0.4,0-0.7-0.1-1-0.3c-0.2-0.2-0.3-0.4-0.3-0.8c0-0.3,0.1-0.6,0.3-0.8
			c0.2-0.2,0.6-0.3,1-0.3h1.1v-0.2c0-0.5-0.3-0.8-0.9-0.8c-0.3,0-0.5,0-0.6,0.1c-0.1,0.1-0.2,0.2-0.2,0.4v0h-0.6v0
			c0-0.3,0.1-0.6,0.4-0.8c0.2-0.2,0.6-0.3,1-0.3c0.5,0,0.9,0.1,1.1,0.3C396.9,53.6,397,53.9,397,54.3z M396.4,55.3V55h-1
			c-0.3,0-0.5,0-0.7,0.1c-0.1,0.1-0.2,0.2-0.2,0.4c0,0.2,0.1,0.3,0.2,0.4c0.1,0.1,0.3,0.1,0.6,0.1c0.3,0,0.6-0.1,0.8-0.2
			C396.4,55.8,396.4,55.6,396.4,55.3z"/>
		<path d="M398.5,53.1v0.5c0.1-0.2,0.3-0.3,0.5-0.4c0.2-0.1,0.4-0.1,0.6-0.1c0.4,0,0.7,0.1,1,0.4c0.2,0.2,0.3,0.6,0.3,1v2.2h-0.6
			v-2.1c0-0.3-0.1-0.5-0.2-0.7c-0.1-0.1-0.4-0.2-0.6-0.2c-0.3,0-0.5,0.1-0.7,0.3c-0.2,0.2-0.3,0.4-0.3,0.7v2h-0.6v-3.5H398.5z"/>
		<path d="M401.7,55v-0.4c0-0.5,0.1-0.9,0.4-1.2c0.3-0.3,0.6-0.4,1-0.4c0.2,0,0.5,0,0.7,0.1c0.2,0.1,0.4,0.2,0.5,0.4v-1.7h0.6v4.7
			h-0.6v-0.5c-0.1,0.2-0.3,0.3-0.5,0.4c-0.2,0.1-0.4,0.1-0.7,0.1c-0.4,0-0.8-0.1-1.1-0.4C401.9,56,401.7,55.6,401.7,55z M404.3,55.1
			v-0.5c0-0.3-0.1-0.6-0.3-0.8c-0.2-0.2-0.4-0.3-0.7-0.3c-0.3,0-0.5,0.1-0.7,0.3c-0.2,0.2-0.3,0.5-0.3,0.9V55c0,0.4,0.1,0.7,0.3,0.9
			c0.2,0.2,0.4,0.3,0.7,0.3c0.3,0,0.6-0.1,0.7-0.3C404.2,55.7,404.3,55.4,404.3,55.1z"/>
		<path d="M406.4,51.9v0.6h-0.6v-0.6H406.4z M406.4,53.1v3.5h-0.6v-3.5H406.4z"/>
		<path d="M408,53.1v0.5c0.1-0.2,0.3-0.3,0.5-0.4c0.2-0.1,0.4-0.1,0.6-0.1c0.4,0,0.7,0.1,1,0.4c0.2,0.2,0.3,0.6,0.3,1v2.2h-0.6v-2.1
			c0-0.3-0.1-0.5-0.2-0.7c-0.1-0.1-0.4-0.2-0.6-0.2c-0.3,0-0.5,0.1-0.7,0.3c-0.2,0.2-0.3,0.4-0.3,0.7v2h-0.6v-3.5H408z"/>
		<path d="M411.3,56.7h0.6c0,0.2,0.1,0.3,0.3,0.4c0.1,0.1,0.4,0.1,0.6,0.1c0.3,0,0.6-0.1,0.8-0.2c0.2-0.1,0.2-0.4,0.2-0.6V56
			c-0.1,0.2-0.3,0.3-0.5,0.4c-0.2,0.1-0.4,0.1-0.7,0.1c-0.4,0-0.8-0.1-1.1-0.4c-0.3-0.3-0.4-0.7-0.4-1.2v-0.3c0-0.5,0.1-0.9,0.4-1.2
			c0.3-0.3,0.6-0.4,1-0.4c0.2,0,0.5,0,0.7,0.1c0.2,0.1,0.4,0.2,0.5,0.4v-0.5h0.6v3.2c0,0.4-0.1,0.8-0.4,1c-0.3,0.2-0.7,0.4-1.2,0.4
			c-0.4,0-0.8-0.1-1-0.2C411.4,57.3,411.3,57,411.3,56.7z M413.8,54.9v-0.3c0-0.3-0.1-0.6-0.3-0.8c-0.2-0.2-0.4-0.3-0.7-0.3
			c-0.3,0-0.5,0.1-0.7,0.3c-0.2,0.2-0.3,0.5-0.3,0.8v0.2c0,0.4,0.1,0.6,0.3,0.8c0.2,0.2,0.4,0.3,0.7,0.3c0.3,0,0.6-0.1,0.8-0.3
			C413.7,55.5,413.8,55.3,413.8,54.9z"/>
		<path d="M415.7,55.9v1.2l-0.6,0.5v-1.7H415.7z"/>
		<path d="M417.9,56.7h0.6c0,0.2,0.1,0.3,0.3,0.4c0.1,0.1,0.4,0.1,0.6,0.1c0.3,0,0.6-0.1,0.8-0.2c0.2-0.1,0.2-0.4,0.2-0.6V56
			c-0.1,0.2-0.3,0.3-0.5,0.4c-0.2,0.1-0.4,0.1-0.7,0.1c-0.4,0-0.8-0.1-1.1-0.4c-0.3-0.3-0.4-0.7-0.4-1.2v-0.3c0-0.5,0.1-0.9,0.4-1.2
			c0.3-0.3,0.6-0.4,1-0.4c0.2,0,0.5,0,0.7,0.1c0.2,0.1,0.4,0.2,0.5,0.4v-0.5h0.6v3.2c0,0.4-0.1,0.8-0.4,1c-0.3,0.2-0.7,0.4-1.2,0.4
			c-0.4,0-0.8-0.1-1-0.2C418.1,57.3,417.9,57,417.9,56.7z M420.4,54.9v-0.3c0-0.3-0.1-0.6-0.3-0.8c-0.2-0.2-0.4-0.3-0.7-0.3
			c-0.3,0-0.5,0.1-0.7,0.3c-0.2,0.2-0.3,0.5-0.3,0.8v0.2c0,0.4,0.1,0.6,0.3,0.8c0.2,0.2,0.4,0.3,0.7,0.3c0.3,0,0.6-0.1,0.8-0.3
			C420.3,55.5,420.4,55.3,420.4,54.9z"/>
		<path d="M422.5,53.1v0.5c0.1-0.2,0.3-0.3,0.5-0.4c0.2-0.1,0.4-0.1,0.6-0.1c0.1,0,0.2,0,0.3,0v0.6c-0.1,0-0.3-0.1-0.4-0.1
			c-0.3,0-0.5,0.1-0.7,0.3s-0.3,0.4-0.3,0.7v2h-0.6v-3.5H422.5z"/>
		<path d="M427.3,54.3v2.3h-0.6v-0.4c-0.2,0.3-0.6,0.4-1.1,0.4c-0.4,0-0.7-0.1-1-0.3c-0.2-0.2-0.3-0.4-0.3-0.8
			c0-0.3,0.1-0.6,0.3-0.8c0.2-0.2,0.6-0.3,1-0.3h1.1v-0.2c0-0.5-0.3-0.8-0.9-0.8c-0.3,0-0.5,0-0.6,0.1c-0.1,0.1-0.2,0.2-0.2,0.4v0
			h-0.6v0c0-0.3,0.1-0.6,0.4-0.8c0.2-0.2,0.6-0.3,1-0.3c0.5,0,0.9,0.1,1.1,0.3C427.2,53.6,427.3,53.9,427.3,54.3z M426.7,55.3V55h-1
			c-0.3,0-0.5,0-0.7,0.1c-0.1,0.1-0.2,0.2-0.2,0.4c0,0.2,0.1,0.3,0.2,0.4c0.1,0.1,0.3,0.1,0.6,0.1c0.3,0,0.6-0.1,0.8-0.2
			C426.6,55.8,426.7,55.6,426.7,55.3z"/>
		<path d="M428.8,53.1v0.5c0.1-0.2,0.3-0.3,0.5-0.4c0.2-0.1,0.4-0.1,0.6-0.1c0.4,0,0.8,0.1,1.1,0.4c0.3,0.3,0.4,0.7,0.4,1.2V55
			c0,0.5-0.1,0.9-0.4,1.2c-0.3,0.3-0.6,0.4-1.1,0.4c-0.5,0-0.9-0.2-1.1-0.5v1.6h-0.6v-4.6H428.8z M430.8,55v-0.3
			c0-0.4-0.1-0.7-0.3-0.9c-0.2-0.2-0.4-0.3-0.7-0.3c-0.3,0-0.6,0.1-0.7,0.3c-0.2,0.2-0.3,0.5-0.3,0.8v0.5c0,0.3,0.1,0.6,0.3,0.8
			c0.2,0.2,0.4,0.3,0.8,0.3c0.3,0,0.5-0.1,0.7-0.3C430.7,55.7,430.8,55.4,430.8,55z"/>
		<path d="M432.7,51.9v1.7c0.1-0.2,0.3-0.3,0.5-0.4c0.2-0.1,0.4-0.1,0.6-0.1c0.4,0,0.7,0.1,1,0.4c0.2,0.2,0.3,0.6,0.3,1v2.2h-0.6
			v-2.1c0-0.3-0.1-0.5-0.2-0.7c-0.1-0.1-0.4-0.2-0.6-0.2c-0.3,0-0.5,0.1-0.7,0.3c-0.2,0.2-0.3,0.4-0.3,0.7v2h-0.6v-4.7H432.7z"/>
		<path d="M436.7,51.9v0.6h-0.6v-0.6H436.7z M436.7,53.1v3.5h-0.6v-3.5H436.7z"/>
		<path d="M437.5,55v-0.3c0-0.5,0.1-0.9,0.4-1.2c0.3-0.3,0.7-0.4,1.2-0.4c0.5,0,0.8,0.1,1.1,0.3c0.3,0.2,0.4,0.5,0.4,0.9v0H440v0
			c0-0.2-0.1-0.4-0.2-0.6c-0.2-0.1-0.4-0.2-0.7-0.2c-0.7,0-1,0.4-1,1.1V55c0,0.8,0.3,1.1,1,1.1c0.3,0,0.5-0.1,0.7-0.2
			c0.2-0.1,0.2-0.3,0.2-0.5v0h0.6v0c0,0.4-0.1,0.7-0.4,0.9c-0.3,0.2-0.6,0.3-1.1,0.3c-0.5,0-0.9-0.1-1.2-0.4
			C437.7,56,437.5,55.6,437.5,55z"/>
		<path d="M446.5,55.9h0.2v0.7h-0.4c-0.2,0-0.3,0-0.4-0.1c-0.1-0.1-0.2-0.2-0.4-0.3l0,0c-0.2,0.2-0.4,0.3-0.6,0.4
			c-0.2,0.1-0.4,0.1-0.7,0.1c-0.5,0-0.8-0.1-1.1-0.4c-0.3-0.2-0.4-0.6-0.4-1c0-0.3,0.1-0.5,0.2-0.7c0.1-0.2,0.4-0.4,0.7-0.6
			c-0.2-0.2-0.3-0.4-0.4-0.6c-0.1-0.2-0.1-0.3-0.1-0.5c0-0.3,0.1-0.6,0.4-0.8c0.2-0.2,0.5-0.3,0.9-0.3c0.4,0,0.7,0.1,0.9,0.3
			c0.2,0.2,0.4,0.5,0.4,0.8c0,0.2-0.1,0.4-0.2,0.6c-0.1,0.2-0.4,0.4-0.7,0.6l0.8,0.9l0.6-0.7l0.5,0.5l-0.7,0.8l0.1,0.1
			c0.1,0.1,0.1,0.1,0.2,0.2C446.3,55.9,446.4,55.9,446.5,55.9z M445,55.6l-0.9-1.1c-0.2,0.1-0.4,0.3-0.4,0.4
			c-0.1,0.1-0.1,0.3-0.1,0.4c0,0.2,0.1,0.4,0.2,0.5c0.1,0.1,0.3,0.2,0.5,0.2c0.1,0,0.3,0,0.4-0.1C444.8,55.8,444.9,55.7,445,55.6z
			 M444,52.9c0,0.1,0,0.2,0.1,0.3c0.1,0.1,0.2,0.2,0.3,0.4c0.2-0.1,0.4-0.3,0.5-0.4c0.1-0.1,0.1-0.2,0.1-0.3c0-0.1,0-0.2-0.1-0.3
			c-0.1-0.1-0.2-0.1-0.4-0.1c-0.1,0-0.3,0-0.4,0.1C444,52.7,444,52.8,444,52.9z"/>
		<path d="M449.3,53.1l0.9,2.8l1-2.8h0.5l1,2.8l0.9-2.8h0.6l-1.2,3.5h-0.6l-0.9-2.7l-0.9,2.7h-0.6l-1.2-3.5H449.3z"/>
		<path d="M455,55c0,0.8,0.4,1.1,1.1,1.1c0.3,0,0.5-0.1,0.6-0.2c0.1-0.1,0.2-0.3,0.2-0.5v0h0.6v0c0,0.2-0.1,0.4-0.2,0.6
			c-0.1,0.2-0.3,0.3-0.5,0.4c-0.2,0.1-0.5,0.2-0.8,0.2c-0.5,0-0.9-0.1-1.2-0.4c-0.3-0.3-0.4-0.7-0.4-1.2v-0.3c0-0.5,0.1-1,0.4-1.2
			c0.3-0.3,0.7-0.4,1.1-0.4c0.5,0,0.9,0.1,1.1,0.4c0.3,0.3,0.4,0.7,0.4,1.2V55L455,55L455,55z M455,54.6h1.9v-0.1
			c0-0.3-0.1-0.6-0.2-0.7c-0.2-0.2-0.4-0.2-0.7-0.2c-0.3,0-0.5,0.1-0.7,0.2C455.2,54,455.1,54.2,455,54.6z"/>
		<path d="M458.9,56.2v0.5h-0.6v-4.7h0.6v1.7c0.1-0.2,0.3-0.3,0.5-0.4c0.2-0.1,0.4-0.1,0.6-0.1c0.4,0,0.8,0.1,1.1,0.4
			c0.3,0.3,0.4,0.7,0.4,1.2V55c0,0.5-0.1,0.9-0.4,1.2c-0.3,0.3-0.6,0.4-1.1,0.4c-0.3,0-0.5,0-0.7-0.1
			C459.2,56.5,459.1,56.3,458.9,56.2z M460.9,55v-0.3c0-0.4-0.1-0.7-0.3-0.9c-0.2-0.2-0.4-0.3-0.7-0.3c-0.3,0-0.6,0.1-0.7,0.3
			c-0.2,0.2-0.3,0.5-0.3,0.8v0.5c0,0.3,0.1,0.6,0.3,0.8c0.2,0.2,0.4,0.3,0.8,0.3c0.3,0,0.5-0.1,0.7-0.3
			C460.8,55.7,460.9,55.4,460.9,55z"/>
		<path d="M463.7,55v-0.4c0-0.5,0.1-0.9,0.4-1.2c0.3-0.3,0.6-0.4,1-0.4c0.2,0,0.5,0,0.7,0.1c0.2,0.1,0.4,0.2,0.5,0.4v-1.7h0.6v4.7
			h-0.6v-0.5c-0.1,0.2-0.3,0.3-0.5,0.4c-0.2,0.1-0.4,0.1-0.7,0.1c-0.4,0-0.8-0.1-1.1-0.4C463.8,56,463.7,55.6,463.7,55z M466.3,55.1
			v-0.5c0-0.3-0.1-0.6-0.3-0.8c-0.2-0.2-0.4-0.3-0.7-0.3c-0.3,0-0.5,0.1-0.7,0.3c-0.2,0.2-0.3,0.5-0.3,0.9V55c0,0.4,0.1,0.7,0.3,0.9
			c0.2,0.2,0.4,0.3,0.7,0.3c0.3,0,0.6-0.1,0.7-0.3C466.2,55.7,466.3,55.4,466.3,55.1z"/>
		<path d="M468.2,55c0,0.8,0.4,1.1,1.1,1.1c0.3,0,0.5-0.1,0.6-0.2c0.1-0.1,0.2-0.3,0.2-0.5v0h0.6v0c0,0.2-0.1,0.4-0.2,0.6
			c-0.1,0.2-0.3,0.3-0.5,0.4c-0.2,0.1-0.5,0.2-0.8,0.2c-0.5,0-0.9-0.1-1.2-0.4c-0.3-0.3-0.4-0.7-0.4-1.2v-0.3c0-0.5,0.1-1,0.4-1.2
			c0.3-0.3,0.7-0.4,1.1-0.4c0.5,0,0.9,0.1,1.1,0.4c0.3,0.3,0.4,0.7,0.4,1.2V55L468.2,55L468.2,55z M468.2,54.6h1.9v-0.1
			c0-0.3-0.1-0.6-0.2-0.7c-0.2-0.2-0.4-0.2-0.7-0.2c-0.3,0-0.5,0.1-0.7,0.2C468.3,54,468.3,54.2,468.2,54.6z"/>
		<path d="M471.4,55.6L471.4,55.6l0.6,0v0c0,0.2,0.1,0.3,0.2,0.4c0.2,0.1,0.4,0.2,0.7,0.2c0.3,0,0.5,0,0.7-0.1
			c0.2-0.1,0.2-0.2,0.2-0.4c0-0.2-0.1-0.3-0.2-0.3c-0.1-0.1-0.3-0.1-0.6-0.2l-0.5-0.1c-0.4,0-0.7-0.1-0.9-0.3
			c-0.2-0.2-0.3-0.4-0.3-0.6c0-0.3,0.1-0.6,0.4-0.8c0.3-0.2,0.6-0.3,1-0.3c0.5,0,0.8,0.1,1.1,0.3c0.3,0.2,0.4,0.4,0.4,0.8v0h-0.6v0
			c0-0.2-0.1-0.3-0.2-0.4c-0.2-0.1-0.4-0.1-0.7-0.1c-0.3,0-0.5,0-0.7,0.1c-0.1,0.1-0.2,0.2-0.2,0.4c0,0.1,0.1,0.3,0.2,0.3
			c0.1,0.1,0.3,0.1,0.5,0.2l0.5,0.1c0.4,0,0.7,0.1,0.9,0.3c0.2,0.2,0.3,0.4,0.3,0.7c0,0.3-0.1,0.6-0.4,0.8c-0.3,0.2-0.6,0.3-1.1,0.3
			c-0.5,0-0.8-0.1-1.1-0.3C471.5,56.2,471.4,55.9,471.4,55.6z"/>
		<path d="M475.7,51.9v0.6h-0.6v-0.6H475.7z M475.7,53.1v3.5h-0.6v-3.5H475.7z"/>
		<path d="M476.7,56.7h0.6c0,0.2,0.1,0.3,0.3,0.4c0.1,0.1,0.4,0.1,0.6,0.1c0.3,0,0.6-0.1,0.8-0.2c0.2-0.1,0.2-0.4,0.2-0.6V56
			c-0.1,0.2-0.3,0.3-0.5,0.4c-0.2,0.1-0.4,0.1-0.7,0.1c-0.4,0-0.8-0.1-1.1-0.4c-0.3-0.3-0.4-0.7-0.4-1.2v-0.3c0-0.5,0.1-0.9,0.4-1.2
			c0.3-0.3,0.6-0.4,1-0.4c0.2,0,0.5,0,0.7,0.1c0.2,0.1,0.4,0.2,0.5,0.4v-0.5h0.6v3.2c0,0.4-0.1,0.8-0.4,1c-0.3,0.2-0.7,0.4-1.2,0.4
			c-0.4,0-0.8-0.1-1-0.2C476.8,57.3,476.7,57,476.7,56.7z M479.1,54.9v-0.3c0-0.3-0.1-0.6-0.3-0.8c-0.2-0.2-0.4-0.3-0.7-0.3
			c-0.3,0-0.5,0.1-0.7,0.3c-0.2,0.2-0.3,0.5-0.3,0.8v0.2c0,0.4,0.1,0.6,0.3,0.8c0.2,0.2,0.4,0.3,0.7,0.3c0.3,0,0.6-0.1,0.8-0.3
			C479.1,55.5,479.1,55.3,479.1,54.9z"/>
		<path d="M481.2,53.1v0.5c0.1-0.2,0.3-0.3,0.5-0.4c0.2-0.1,0.4-0.1,0.6-0.1c0.4,0,0.7,0.1,1,0.4c0.2,0.2,0.3,0.6,0.3,1v2.2H483
			v-2.1c0-0.3-0.1-0.5-0.2-0.7c-0.1-0.1-0.4-0.2-0.6-0.2c-0.3,0-0.5,0.1-0.7,0.3c-0.2,0.2-0.3,0.4-0.3,0.7v2h-0.6v-3.5H481.2z"/>
	</g>
	<rect x="271.7" y="181" width="49.4" height="4.9"/>
	<g>
		<g>
			<g class="st2">
				<g>
					<polygon class="st3" points="607.3,-8.4 601.9,-11.6 601.1,-12.4 606.5,-9.2 					"/>
				</g>
				<g>
					<polygon class="st3" points="605.8,-9.8 600.4,-13 599.6,-13.8 604.9,-10.6 					"/>
				</g>
				<g>
					<polygon class="st3" points="607.9,-8.8 602.5,-12 602.2,-19.5 607.6,-16.3 					"/>
				</g>
				<g>
					<polygon class="st3" points="606.3,-10.2 601,-13.4 600.8,-17.9 606.1,-14.7 					"/>
				</g>
				<g>
					<polygon class="st3" points="606.3,-15.9 600.9,-19.1 601.7,-19.9 607,-16.7 					"/>
				</g>
				<g>
					<polygon class="st3" points="604.9,-14.3 599.5,-17.5 600.2,-18.4 605.6,-15.2 					"/>
				</g>
				<g>
					<polygon class="st4" points="564.2,-6.1 558.8,-9.4 601.9,-11.6 607.3,-8.4 					"/>
				</g>
				<g>
					<polygon class="st4" points="565.6,-7.7 560.2,-10.9 600.4,-13 605.8,-9.8 					"/>
				</g>
				<g>
					<polygon class="st3" points="565.1,-8.2 559.7,-11.4 560.5,-12.2 565.9,-9 					"/>
				</g>
				<g>
					<polygon class="st3" points="563.7,-6.6 558.3,-9.8 559.1,-10.6 564.5,-7.4 					"/>
				</g>
				<g>
					<polygon class="st4" points="566.3,-12.3 560.9,-15.5 599.5,-17.5 604.9,-14.3 					"/>
				</g>
				<g>
					<polygon class="st3" points="565.9,-9 560.5,-12.2 560.4,-15.1 565.7,-11.9 					"/>
				</g>
				<g>
					<polygon class="st3" points="565.7,-11.9 560.4,-15.1 559.5,-15.9 564.9,-12.6 					"/>
				</g>
				<g>
					<polygon class="st4" points="564.8,-13.7 559.4,-16.9 600.9,-19.1 606.3,-15.9 					"/>
				</g>
				<g>
					<polygon class="st3" points="564.5,-7.4 559.1,-10.6 558.8,-16.5 564.2,-13.3 					"/>
				</g>
				<g>
					<polygon class="st3" points="564.2,-13.3 558.8,-16.5 558,-17.3 563.4,-14.1 					"/>
				</g>
				<g>
					<polygon class="st4" points="562.6,-15.1 557.2,-18.3 602.8,-20.7 608.2,-17.5 					"/>
				</g>
				<g>
					<path class="st5" d="M562.6-15.1l45.6-2.4l0.4,9.7l-45.6,2.4L562.6-15.1z M607-16.7l-43.1,2.3l0.8,0.8l41.5-2.2L607-16.7
						 M564.2-6.1l43.1-2.3l-0.8-0.8L565-7L564.2-6.1 M565.5-13.1l0.8,0.8l38.6-2l0.8-0.8L565.5-13.1 M566.4-8.5l-0.8,0.8l40.2-2.1
						l-0.8-0.8L566.4-8.5 M607.9-8.8l-0.3-7.5l-0.8,0.8l0.3,5.9L607.9-8.8 M563.4-14.1l0.3,7.5l0.8-0.8l-0.3-5.9L563.4-14.1
						 M605.5-11l0.8,0.8l-0.2-4.5l-0.8,0.8L605.5-11 M565.7-11.9l-0.8-0.8l0.2,4.5l0.8-0.8L565.7-11.9"/>
				</g>
				<g>
					<polygon class="st3" points="563.1,-5.4 557.7,-8.6 557.2,-18.3 562.6,-15.1 					"/>
				</g>
			</g>
		</g>
	</g>
	<g>
		<g>
			<g class="st2">
				<g>
					<polygon class="st3" points="661.5,-8.4 656.2,-11.6 655.3,-12.4 660.7,-9.2 					"/>
				</g>
				<g>
					<polygon class="st3" points="660,-9.8 654.6,-13 653.8,-13.8 659.2,-10.6 					"/>
				</g>
				<g>
					<polygon class="st3" points="662.1,-8.8 656.7,-12 656.4,-19.5 661.8,-16.3 					"/>
				</g>
				<g>
					<polygon class="st3" points="660.6,-10.2 655.2,-13.4 655,-17.9 660.4,-14.7 					"/>
				</g>
				<g>
					<polygon class="st3" points="660.5,-15.9 655.1,-19.1 655.9,-19.9 661.3,-16.7 					"/>
				</g>
				<g>
					<polygon class="st3" points="659.1,-14.3 653.7,-17.5 654.5,-18.4 659.9,-15.2 					"/>
				</g>
				<g>
					<polygon class="st4" points="618.5,-6.2 613.1,-9.4 656.2,-11.6 661.5,-8.4 					"/>
				</g>
				<g>
					<polygon class="st4" points="619.9,-7.7 614.5,-10.9 654.6,-13 660,-9.8 					"/>
				</g>
				<g>
					<polygon class="st3" points="619.3,-8.1 613.9,-11.3 614.7,-12.1 620.1,-8.9 					"/>
				</g>
				<g>
					<polygon class="st3" points="617.9,-6.5 612.5,-9.7 613.3,-10.6 618.7,-7.3 					"/>
				</g>
				<g>
					<polygon class="st4" points="620.4,-12.3 615,-15.5 653.7,-17.5 659.1,-14.3 					"/>
				</g>
				<g>
					<polygon class="st3" points="620.1,-8.9 614.7,-12.1 614.6,-15 620,-11.8 					"/>
				</g>
				<g>
					<polygon class="st3" points="620,-11.8 614.6,-15 613.7,-15.8 619.1,-12.6 					"/>
				</g>
				<g>
					<polygon class="st4" points="618.9,-13.7 613.5,-16.9 655.1,-19.1 660.5,-15.9 					"/>
				</g>
				<g>
					<polygon class="st3" points="618.7,-7.3 613.3,-10.6 613,-16.4 618.4,-13.2 					"/>
				</g>
				<g>
					<polygon class="st3" points="618.4,-13.2 613,-16.4 612.2,-17.2 617.6,-14 					"/>
				</g>
				<g>
					<polygon class="st3" points="617.3,-5.4 611.9,-8.6 611.5,-18.3 616.9,-15.1 					"/>
				</g>
				<g>
					<path class="st5" d="M616.9-15.1l45.6-2.4l0.4,9.7l-45.6,2.4L616.9-15.1z M661.3-16.7l-43.2,2.3l0.8,0.8l41.6-2.2L661.3-16.7
						 M618.5-6.2l43-2.3l-0.8-0.8L619.3-7L618.5-6.2 M619.6-13.1l0.8,0.8l38.7-2l0.8-0.8L619.6-13.1 M620.7-8.6l-0.8,0.8L660-9.8
						l-0.8-0.8L620.7-8.6 M662.1-8.8l-0.3-7.5l-0.8,0.8l0.3,5.9L662.1-8.8 M617.6-14l0.3,7.5l0.8-0.8l-0.3-5.9L617.6-14 M620-11.8
						l-0.8-0.8l0.2,4.5l0.8-0.8L620-11.8 M659.7-11l0.8,0.8l-0.2-4.5l-0.8,0.8L659.7-11"/>
				</g>
				<g>
					<polygon class="st4" points="616.9,-15.1 611.5,-18.3 657,-20.7 662.4,-17.5 					"/>
				</g>
			</g>
		</g>
	</g>
	<g>
		<g>
			<g class="st2">
				<g>
					<polygon class="st3" points="607.7,27.7 602.3,24.5 601.5,23.7 606.9,26.9 					"/>
				</g>
				<g>
					<polygon class="st3" points="606.2,26.3 600.8,23.1 600,22.3 605.4,25.5 					"/>
				</g>
				<g>
					<polygon class="st3" points="608.3,27.3 602.9,24.1 602.6,16.6 608,19.8 					"/>
				</g>
				<g>
					<polygon class="st3" points="606.7,25.9 601.4,22.7 601.2,18.2 606.5,21.4 					"/>
				</g>
				<g>
					<polygon class="st3" points="606.7,20.2 601.3,17 602.1,16.2 607.5,19.4 					"/>
				</g>
				<g>
					<polygon class="st3" points="605.3,21.8 599.9,18.6 600.6,17.7 606,21 					"/>
				</g>
				<g>
					<polygon class="st3" points="597.8,10.2 592.4,7 591.6,6.2 597,9.4 					"/>
				</g>
				<g>
					<polygon class="st3" points="598.5,9.9 593.1,6.7 592.8,-0.8 598.2,2.4 					"/>
				</g>
				<g>
					<polygon class="st3" points="596.3,8.8 590.9,5.6 590.1,4.8 595.5,8 					"/>
				</g>
				<g>
					<polygon class="st3" points="597,8.5 591.6,5.2 591.4,0.7 596.8,4 					"/>
				</g>
				<g>
					<polygon class="st3" points="597,2.7 591.6,-0.5 592.4,-1.4 597.8,1.8 					"/>
				</g>
				<g>
					<polygon class="st3" points="595.6,4.2 590.2,1 591,0.2 596.3,3.4 					"/>
				</g>
				<g>
					<polygon class="st4" points="569.9,23.6 564.5,20.4 599.9,18.6 605.3,21.8 					"/>
				</g>
				<g>
					<polygon class="st4" points="571.3,22.1 565.9,18.9 601.3,17 606.7,20.2 					"/>
				</g>
				<g>
					<polygon class="st4" points="572.7,20.5 567.3,17.3 603.2,15.4 608.6,18.6 					"/>
				</g>
				<g>
					<polygon class="st4" points="564.7,30 559.3,26.7 602.3,24.5 607.7,27.7 					"/>
				</g>
				<g>
					<polygon class="st4" points="566.1,28.4 560.7,25.2 600.8,23.1 606.2,26.3 					"/>
				</g>
				<g>
					<polygon class="st3" points="565.5,28 560.1,24.8 560.9,24 566.3,27.2 					"/>
				</g>
				<g>
					<polygon class="st3" points="564.1,29.6 558.7,26.4 559.5,25.6 564.9,28.8 					"/>
				</g>
				<g>
					<polygon class="st3" points="572,21.2 566.7,18 566.2,8.3 571.6,11.5 					"/>
				</g>
				<g>
					<polygon class="st4" points="571.6,11.5 566.2,8.3 592.4,7 597.8,10.2 					"/>
				</g>
				<g>
					<polygon class="st4" points="570.1,10.1 564.7,6.9 590.9,5.6 596.3,8.8 					"/>
				</g>
				<g>
					<polygon class="st3" points="570.6,22.8 565.2,19.6 564.7,6.9 570.1,10.1 					"/>
				</g>
				<g>
					<polygon class="st3" points="566.3,27.2 560.9,24 560,3.2 565.3,6.4 					"/>
				</g>
				<g>
					<polygon class="st4" points="565.7,5.8 560.3,2.6 590.2,1 595.6,4.2 					"/>
				</g>
				<g>
					<polygon class="st3" points="565.3,6.4 560,3.2 559.1,2.4 564.5,5.7 					"/>
				</g>
				<g>
					<polygon class="st4" points="564.2,4.4 558.8,1.2 591.6,-0.5 597,2.7 					"/>
				</g>
				<g>
					<polygon class="st3" points="564.9,28.8 559.5,25.6 558.4,1.8 563.8,5 					"/>
				</g>
				<g>
					<polygon class="st3" points="563.8,5 558.4,1.8 557.6,1 563,4.2 					"/>
				</g>
				<g>
					<polygon class="st3" points="563.5,30.7 558.1,27.5 556.8,-0.2 562.2,3 					"/>
				</g>
				<g>
					<path class="st5" d="M572.7,20.5l35.9-1.9l0.4,9.7l-45.6,2.4L562.2,3l36.6-1.9l0.4,9.7l-26.9,1.4L572.7,20.5z M606,21
						l-35.4,1.9l-0.6-12.7l26.2-1.4L595.5,8l-26.2,1.4l0.6,14.3l35.4-1.9L606,21 M571.6,11.5l26.2-1.4L597,9.4l-26.2,1.4l0.5,11.3
						l35.4-1.9l0.8-0.8L572,21.2L571.6,11.5 M564.7,30l43-2.3l-0.8-0.8l-41.4,2.2L564.7,30 M566.9,27.6l-0.8,0.8l40.1-2.1l-0.8-0.8
						L566.9,27.6 M597.8,1.8l-34.4,1.8l0.8,0.8L597,2.7L597.8,1.8 M595.6,4.2l0.8-0.8l-31.5,1.6l0.8,0.8L595.6,4.2 M563,4.2
						l1.1,25.4l0.8-0.8L563.8,5L563,4.2 M565.3,6.4l-0.8-0.8l1,22.4l0.8-0.8L565.3,6.4 M598.5,9.9l-0.3-7.5l-0.8,0.8l0.3,5.9
						L598.5,9.9 M608.3,27.3l-0.3-7.4l-0.8,0.8l0.3,5.8L608.3,27.3 M596.1,7.7l0.8,0.8L596.8,4L596,4.8L596.1,7.7 M605.9,25.1
						l0.8,0.8l-0.2-4.5l-0.8,0.8L605.9,25.1"/>
				</g>
				<g>
					<polygon class="st4" points="562.2,3 556.8,-0.2 593.4,-2.1 598.8,1.1 					"/>
				</g>
			</g>
		</g>
	</g>
	<g>
		<g>
			<g class="st2">
				<g>
					<polygon class="st3" points="662,27.7 656.6,24.5 655.7,23.7 661.1,26.9 					"/>
				</g>
				<g>
					<polygon class="st3" points="660.4,26.3 655,23.1 654.2,22.3 659.6,25.5 					"/>
				</g>
				<g>
					<polygon class="st3" points="662.5,27.3 657.1,24.1 656,-1.3 661.4,1.9 					"/>
				</g>
				<g>
					<polygon class="st3" points="661,25.9 655.6,22.7 654.6,0.3 660,3.5 					"/>
				</g>
				<g>
					<polygon class="st3" points="660.2,2.2 654.8,-1 655.6,-1.8 661,1.4 					"/>
				</g>
				<g>
					<polygon class="st3" points="658.8,3.8 653.4,0.6 654.1,-0.3 659.5,2.9 					"/>
				</g>
				<g>
					<polygon class="st3" points="656.3,22 650.9,18.8 650.2,4.5 655.6,7.7 					"/>
				</g>
				<g>
					<polygon class="st3" points="654.7,20.6 649.3,17.3 648.8,6 654.2,9.3 					"/>
				</g>
				<g>
					<polygon class="st3" points="653.2,19.1 647.8,15.9 647.4,7.6 652.8,10.8 					"/>
				</g>
				<g>
					<polygon class="st4" points="618.9,30 613.5,26.7 656.6,24.5 662,27.7 					"/>
				</g>
				<g>
					<polygon class="st4" points="620.3,28.4 615,25.2 655,23.1 660.4,26.3 					"/>
				</g>
				<g>
					<polygon class="st3" points="619.7,28 614.4,24.8 615.1,24 620.5,27.2 					"/>
				</g>
				<g>
					<polygon class="st3" points="618.3,29.6 612.9,26.4 613.7,25.6 619.1,28.8 					"/>
				</g>
				<g>
					<polygon class="st4" points="620.8,23.8 615.5,20.6 650.9,18.8 656.3,22 					"/>
				</g>
				<g>
					<polygon class="st3" points="620.5,27.2 615.1,24 615,21.1 620.4,24.3 					"/>
				</g>
				<g>
					<polygon class="st4" points="626.5,11.5 621.1,8.3 648,6.9 653.4,10.1 					"/>
				</g>
				<g>
					<polygon class="st4" points="627.9,10 622.5,6.7 649.5,5.3 654.9,8.5 					"/>
				</g>
				<g>
					<polygon class="st3" points="620.4,24.3 615,21.1 614.2,20.4 619.5,23.6 					"/>
				</g>
				<g>
					<polygon class="st4" points="619.3,22.4 613.9,19.2 649.3,17.3 654.7,20.6 					"/>
				</g>
				<g>
					<polygon class="st3" points="619.1,28.8 613.7,25.6 613.4,19.7 618.8,22.9 					"/>
				</g>
				<g>
					<polygon class="st3" points="628.7,9.1 623.3,5.9 623.2,2.7 628.5,5.9 					"/>
				</g>
				<g>
					<polygon class="st4" points="628.9,5.3 623.5,2.1 653.4,0.6 658.8,3.8 					"/>
				</g>
				<g>
					<polygon class="st3" points="618.8,22.9 613.4,19.7 612.6,18.9 618,22.2 					"/>
				</g>
				<g>
					<polygon class="st3" points="628.5,5.9 623.2,2.7 622.3,2 627.7,5.2 					"/>
				</g>
				<g>
					<polygon class="st3" points="617.7,30.7 612.3,27.5 611.9,17.8 617.3,21 					"/>
				</g>
				<g>
					<polygon class="st4" points="617.3,21 611.9,17.8 647.8,15.9 653.2,19.1 					"/>
				</g>
				<g>
					<polygon class="st3" points="627.3,10.7 621.9,7.5 621.6,1.3 627,4.5 					"/>
				</g>
				<g>
					<polygon class="st4" points="627.4,3.9 622,0.7 654.8,-1 660.2,2.2 					"/>
				</g>
				<g>
					<polygon class="st3" points="627,4.5 621.6,1.3 620.8,0.6 626.2,3.8 					"/>
				</g>
				<g>
					<polygon class="st4" points="625.4,2.5 620,-0.7 656.6,-2.6 662,0.6 					"/>
				</g>
				<g>
					<path class="st5" d="M625.4,2.5L662,0.6l1.2,27.7l-45.6,2.4l-0.4-9.7l35.9-1.9l-0.4-8.3l-26.9,1.4L625.4,2.5z M627.9,10
						l26.9-1.4l0.6,12.7L620,23.1l0.8,0.8l35.4-1.9l-0.6-14.3l-26.9,1.4l-0.1-3.2l-0.8-0.8L627.9,10 M653.9,19.8l-35.4,1.9l0.8,0.8
						l35.4-1.9l-0.5-11.3l-26.9,1.4L627,4.5l-0.8-0.8l0.3,7.7l26.9-1.4L653.9,19.8 M618.9,30l43-2.3l-0.8-0.8l-41.4,2.2L618.9,30
						 M621.1,27.6l-0.8,0.8l40.1-2.1l-0.8-0.8L621.1,27.6 M661,1.4l-34.4,1.8l0.8,0.8l32.8-1.7L661,1.4 M628.1,4.6l0.8,0.8l29.9-1.6
						l0.8-0.8L628.1,4.6 M662.5,27.3l-1.1-25.4l-0.8,0.8l1.1,23.8L662.5,27.3 M660.1,25.1l0.8,0.8l-1-22.4l-0.8,0.8L660.1,25.1
						 M618,22.2l0.3,7.4l0.8-0.8l-0.3-5.8L618,22.2 M620.4,24.3l-0.8-0.8l0.2,4.5l0.8-0.8L620.4,24.3"/>
				</g>
				<g>
					<polygon class="st3" points="625.9,12.2 620.5,9 620,-0.7 625.4,2.5 					"/>
				</g>
			</g>
		</g>
	</g>
	<path d="M206.3-3.5"/>
	<g>
		<g>
			<rect x="205.9" y="-21.7" width="49.4" height="9.9"/>
			<rect x="265.2" y="-21.7" width="49.4" height="9.9"/>
			<polygon points="215.8,17.8 215.8,8 245.5,8 245.5,-1.9 205.9,-1.9 205.9,0.5 205.9,8 205.9,17.8 205.9,24.8 205.9,27.7 
				255.4,27.7 255.4,17.8 			"/>
			<polygon points="275.1,-1.9 275.1,8 304.8,8 304.8,17.8 265.2,17.8 265.2,27.7 314.7,27.7 314.7,25.3 314.7,17.8 314.7,8 
				314.7,1 314.7,-1.9 			"/>
		</g>
	</g>
	<g>
		<path d="M212.8,43.5c-0.3-0.4-0.4-0.9-0.4-1.5v-4.9h1.5v4.8c0,0.5,0.1,0.9,0.4,1.2c0.3,0.3,0.7,0.4,1.2,0.4c0.5,0,0.9-0.1,1.2-0.4
			c0.3-0.3,0.4-0.7,0.4-1.2v-4.8h1.5V42c0,0.6-0.1,1.1-0.4,1.5c-0.3,0.4-0.6,0.8-1.1,1c-0.5,0.2-1,0.3-1.6,0.3
			c-0.6,0-1.2-0.1-1.6-0.3C213.4,44.2,213.1,43.9,212.8,43.5z"/>
		<path d="M225.9,39.5c0,0.7-0.2,1.3-0.7,1.7c-0.5,0.4-1.2,0.6-2.1,0.6h-1.8v2.9h-1.5v-7.6h3.3c0.9,0,1.5,0.2,2,0.6
			C225.7,38.1,225.9,38.7,225.9,39.5z M224.2,38.6c-0.2-0.2-0.5-0.3-0.9-0.3h-1.9v2.2h1.9c0.8,0,1.2-0.4,1.2-1.1
			C224.5,39.1,224.4,38.8,224.2,38.6z"/>
		<path d="M233,44.7h-1.5v-3.2h-3.2v3.2h-1.5v-7.6h1.5v3.1h3.2v-3.1h1.5V44.7z"/>
		<path d="M234.2,41.5v-1.2c0-1.1,0.3-2,0.8-2.5c0.6-0.6,1.3-0.8,2.3-0.8c1,0,1.8,0.3,2.3,0.8c0.6,0.6,0.8,1.4,0.8,2.5v1.2
			c0,1.1-0.3,1.9-0.9,2.5c-0.6,0.6-1.4,0.8-2.3,0.8s-1.8-0.3-2.3-0.8C234.5,43.4,234.2,42.6,234.2,41.5z M239.1,40.4
			c0-1.4-0.6-2.2-1.7-2.2c-0.6,0-1,0.2-1.3,0.5c-0.3,0.4-0.4,0.9-0.4,1.6v1.1c0,0.7,0.1,1.2,0.4,1.6c0.3,0.3,0.7,0.5,1.3,0.5
			c1.1,0,1.7-0.7,1.7-2.1V40.4z"/>
		<path d="M243.2,41.7v3h-1.5v-7.6h3.3c0.8,0,1.5,0.2,2,0.6c0.5,0.4,0.7,1,0.7,1.7c0,0.5-0.1,1-0.4,1.4c-0.3,0.4-0.6,0.6-1.2,0.8
			l1.9,3.2h-1.7l-1.7-3H243.2z M245.1,40.5c0.8,0,1.2-0.4,1.2-1.1c0-0.4-0.1-0.6-0.3-0.8c-0.2-0.2-0.5-0.3-0.9-0.3h-1.9v2.1H245.1z"
			/>
		<path d="M250.5,37.1v7.6H249v-7.6H250.5z"/>
		<path d="M251.8,41.5v-1.2c0-1.1,0.3-2,0.9-2.5c0.6-0.6,1.4-0.8,2.4-0.8c0.9,0,1.7,0.2,2.2,0.7c0.6,0.5,0.8,1.1,0.8,1.9v0.1h-1.5v0
			c0-0.4-0.1-0.8-0.4-1c-0.3-0.2-0.7-0.4-1.2-0.4c-0.6,0-1.1,0.2-1.4,0.5s-0.4,0.9-0.4,1.6v1.1c0,0.7,0.2,1.2,0.5,1.6
			c0.3,0.3,0.8,0.5,1.4,0.5c0.5,0,0.9-0.1,1.2-0.4c0.3-0.2,0.4-0.6,0.4-1v-0.1h1.4v0.1c0,0.8-0.3,1.5-0.8,2
			c-0.6,0.5-1.3,0.7-2.2,0.7c-1,0-1.8-0.3-2.4-0.8S251.8,42.6,251.8,41.5z"/>
		<path d="M261.9,41.5v-1.1c0-1.1,0.3-2,0.8-2.5c0.6-0.6,1.3-0.8,2.4-0.8c0.9,0,1.6,0.2,2.2,0.7c0.5,0.4,0.8,1,0.8,1.8v0.1h-1v0
			c0-0.5-0.2-0.8-0.5-1.1c-0.3-0.3-0.8-0.4-1.5-0.4c-0.7,0-1.3,0.2-1.7,0.6c-0.4,0.4-0.5,1-0.5,1.9v1.1c0,0.8,0.2,1.4,0.5,1.8
			c0.4,0.4,0.9,0.6,1.7,0.6c1.3,0,2-0.6,2-1.9v-0.5H265v-0.9h3.1V42c0,0.9-0.3,1.6-0.8,2.1c-0.5,0.5-1.3,0.7-2.2,0.7
			c-1,0-1.8-0.3-2.4-0.8C262.1,43.4,261.9,42.6,261.9,41.5z"/>
		<path d="M270.5,41.5v3.3h-1v-7.6h3.3c0.8,0,1.5,0.2,1.9,0.6c0.4,0.4,0.7,0.9,0.7,1.6c0,0.6-0.1,1-0.4,1.4
			c-0.3,0.4-0.7,0.6-1.2,0.7l1.9,3.4h-1.2l-1.8-3.3H270.5z M272.9,40.6c0.5,0,0.9-0.1,1.2-0.3c0.3-0.2,0.4-0.5,0.4-1
			c0-0.4-0.1-0.8-0.4-1c-0.3-0.2-0.7-0.3-1.2-0.3h-2.3v2.6H272.9z"/>
		<polygon points="277.2,44.7 276.1,44.7 279.3,37.1 280.2,37.1 283.4,44.7 282.3,44.7 279.7,38.3 		"/>
		<path d="M290.2,39.4c0,0.7-0.2,1.3-0.7,1.7c-0.4,0.4-1.1,0.6-2,0.6h-2.3v3.1h-1v-7.6h3.3c0.8,0,1.5,0.2,1.9,0.6
			C290,38.1,290.2,38.6,290.2,39.4z M289.2,39.4c0-0.5-0.1-0.9-0.4-1.1c-0.3-0.2-0.7-0.3-1.3-0.3h-2.3v2.8h2.3
			c0.5,0,0.9-0.1,1.2-0.3C289,40.2,289.2,39.9,289.2,39.4z"/>
		<path d="M297.3,44.7h-1v-3.5h-4v3.5h-1v-7.6h1v3.3h4v-3.3h1V44.7z"/>
		<path d="M300,37.1v7.6h-1v-7.6H300z"/>
		<path d="M301.5,41.5v-1.1c0-1.1,0.3-2,0.8-2.5c0.6-0.6,1.4-0.8,2.4-0.8c0.9,0,1.6,0.2,2.2,0.6c0.5,0.4,0.8,1,0.8,1.8v0.1h-1v0
			c0-0.5-0.2-0.9-0.5-1.1c-0.3-0.3-0.8-0.4-1.5-0.4c-0.7,0-1.3,0.2-1.7,0.6c-0.4,0.4-0.5,1-0.5,1.9v1.1c0,0.8,0.2,1.4,0.5,1.8
			c0.4,0.4,0.9,0.6,1.7,0.6c0.6,0,1.1-0.1,1.5-0.4c0.3-0.3,0.5-0.7,0.5-1.2v0h1v0.1c0,0.8-0.3,1.4-0.8,1.8c-0.5,0.4-1.3,0.6-2.2,0.6
			c-1,0-1.8-0.3-2.4-0.8C301.8,43.4,301.5,42.6,301.5,41.5z"/>
		<path d="M308.7,42.5h1c0,0.5,0.2,0.9,0.6,1.1c0.3,0.2,0.8,0.3,1.5,0.3c1.3,0,2-0.4,2-1.3c0-0.4-0.1-0.7-0.4-0.9s-0.6-0.3-1.2-0.4
			l-1-0.1c-1.5-0.2-2.2-0.9-2.2-2c0-0.7,0.3-1.2,0.8-1.6c0.5-0.4,1.2-0.6,2.1-0.6c0.8,0,1.5,0.2,2,0.5c0.5,0.4,0.8,0.9,0.8,1.6h-1
			c0-0.4-0.2-0.8-0.5-1c-0.3-0.2-0.8-0.3-1.4-0.3c-0.6,0-1.1,0.1-1.4,0.3c-0.3,0.2-0.5,0.5-0.5,0.9c0,0.4,0.1,0.6,0.4,0.8
			c0.2,0.2,0.6,0.3,1.1,0.4l1.1,0.1c1.5,0.2,2.3,0.9,2.3,2.1c0,0.7-0.3,1.3-0.8,1.7c-0.5,0.4-1.3,0.6-2.2,0.6
			c-0.9,0-1.6-0.2-2.1-0.6C309,43.8,308.7,43.3,308.7,42.5z"/>
		<g>
			<polygon points="205.9,40.2 205.9,44.7 211.4,44.7 211.4,43.5 207.4,43.5 207.4,41.5 210.8,41.5 210.8,40.2 207.4,40.2 			"/>
			<polygon points="205.9,37.1 205.9,38.3 207.4,38.3 211.4,38.3 211.4,37.1 			"/>
			<polygon points="205.9,42.5 207.2,42.5 207.2,41.1 207.2,37.1 205.9,37.1 			"/>
		</g>
	</g>
	<g>
		<rect x="701.9" y="-46.4" class="st0" width="22.2" height="9.9"/>
		<polygon class="st0" points="711.8,-6.9 711.8,-16.8 721.7,-16.8 721.7,-26.6 701.9,-26.6 701.9,-24.2 701.9,-16.8 701.9,-6.9 
			701.9,0.1 701.9,3 724.2,3 724.2,-6.9 		"/>
	</g>
	<g>
		<rect x="729.1" y="-46.4" class="st0" width="22.2" height="9.9"/>
		<polygon class="st0" points="741.5,-6.9 741.5,-16.8 731.6,-16.8 731.6,-26.6 751.4,-26.6 751.4,-24.2 751.4,-16.8 751.4,-6.9 
			751.4,0.1 751.4,3 729.1,3 729.1,-6.9 		"/>
	</g>
	<rect x="773.4" y="-36.5" class="st0" width="9.9" height="9.9"/>
	<g>
		<g>
			<rect x="28.1" y="42.7" class="st0" width="42.7" height="8.5"/>
			<rect x="79.3" y="42.7" class="st0" width="42.7" height="8.5"/>
			<polygon class="st0" points="36.6,76.8 36.6,68.3 62.2,68.3 62.2,59.7 28.1,59.7 28.1,61.9 28.1,68.3 28.1,76.8 28.1,82.8 
				28.1,85.3 70.7,85.3 70.7,76.8 			"/>
			<polygon class="st0" points="87.8,59.7 87.8,68.3 113.4,68.3 113.4,76.8 79.3,76.8 79.3,85.3 121.9,85.3 121.9,83.2 121.9,76.8 
				121.9,68.3 121.9,62.2 121.9,59.7 			"/>
		</g>
	</g>
</g>
</svg>
