<?xml version="1.0" encoding="utf-8"?>
<!-- Generator: Adobe Illustrator 24.0.1, SVG Export Plug-In . SVG Version: 6.00 Build 0)  -->
<svg version="1.1" id="Layer_1" xmlns="http://www.w3.org/2000/svg" xmlns:xlink="http://www.w3.org/1999/xlink" x="0px" y="0px"
	 viewBox="0 0 363.3 50" style="enable-background:new 0 0 363.3 50;" xml:space="preserve">
<g>
	<path d="M199.7,27.3h6.9v1.5c0,4.1-2.2,6.1-6.5,6.1c-2.4,0-4.3-0.6-5.5-2c-1.2-1.3-1.8-3.3-1.8-6v-3.5c0-2.8,0.6-4.9,1.8-6.2
		c1.2-1.3,3-2,5.4-2c2.1,0,3.6,0.4,4.8,1.3c1.1,0.9,1.7,2.1,1.7,3.7v0.1h3.3v-0.2c0-2.4-0.9-4.4-2.6-5.8s-4.1-2.1-7.1-2.1
		c-3.4,0-5.9,0.9-7.8,2.8c-1.8,1.8-2.7,4.6-2.7,8.2v3.7c0,3.6,0.9,6.4,2.7,8.2c1.8,1.8,4.4,2.8,7.8,2.8c3,0,5.4-0.8,7.2-2.4
		c1.7-1.6,2.6-3.9,2.6-6.9v-4.1h-10.2V27.3z"/>
	<path d="M232.6,24.2c0.9-1.2,1.4-2.7,1.4-4.5c0-2.3-0.7-4.1-2.2-5.3c-1.5-1.2-3.6-1.8-6.3-1.8h-10.9v25h3.3V26.9h7.2l5.8,10.6h3.8
		l-6.2-11C230.3,26.1,231.7,25.3,232.6,24.2z M217.9,24v-8.5h7.5c1.8,0,3.2,0.3,4,1c0.9,0.7,1.3,1.8,1.3,3.2c0,1.5-0.4,2.6-1.3,3.3
		c-0.8,0.7-2.1,1.1-3.9,1.1v0H217.9z"/>
	<polygon points="246.7,12.5 236.3,37.5 239.7,37.5 248.1,16.6 256.5,37.5 260,37.5 249.5,12.5 	"/>
	<path d="M280,14.4c-1.5-1.3-3.6-1.9-6.4-1.9h-10.8v25h3.3v-10h7.5c2.8,0,4.9-0.6,6.4-1.9c1.5-1.3,2.2-3.1,2.2-5.5
		C282.2,17.6,281.5,15.7,280,14.4z M277.7,23.5c-0.9,0.7-2.2,1.1-4,1.1h-7.6v-9.1h7.4c1.9,0,3.3,0.4,4.1,1.1
		c0.9,0.7,1.3,1.9,1.3,3.5C278.9,21.6,278.5,22.8,277.7,23.5z"/>
	<polygon points="302.2,23.3 289.2,23.3 289.2,12.5 285.9,12.5 285.9,37.5 289.2,37.5 289.2,26.2 302.2,26.2 302.2,37.5 305.5,37.5 
		305.5,12.5 302.2,12.5 	"/>
	<rect x="310.9" y="12.5" width="3.3" height="25"/>
	<path d="M337,14.3c-1.7-1.4-4.1-2.1-7.1-2.1c-3.4,0-6,0.9-7.8,2.8c-1.8,1.8-2.8,4.6-2.8,8.2v3.7c0,3.6,0.9,6.4,2.7,8.2
		c1.8,1.8,4.4,2.8,7.7,2.8c3,0,5.4-0.7,7.2-2.1s2.6-3.4,2.6-5.9v-0.2h-3.3v0.1c0,1.6-0.6,2.9-1.7,3.8c-1.1,0.9-2.7,1.3-4.8,1.3
		c-2.4,0-4.3-0.6-5.5-2c-1.2-1.3-1.8-3.3-1.8-6v-3.5c0-2.8,0.6-4.9,1.8-6.2c1.2-1.3,3-2,5.4-2c2.1,0,3.7,0.4,4.8,1.3
		c1.1,0.9,1.7,2.1,1.7,3.7v0.1h3.3v-0.2C339.6,17.6,338.7,15.7,337,14.3z"/>
	<path d="M354.9,23.5l-3.5-0.4c-1.7-0.2-2.9-0.6-3.7-1.3c-0.8-0.7-1.2-1.6-1.2-2.7c0-1.3,0.5-2.3,1.5-3c1-0.7,2.5-1.1,4.5-1.1
		c2,0,3.4,0.4,4.4,1.1c1,0.7,1.6,1.8,1.7,3.2h3.2c-0.2-2.3-1.1-4.1-2.7-5.3c-1.6-1.2-3.8-1.8-6.5-1.8c-2.8,0-5.1,0.6-6.7,1.9
		c-1.6,1.2-2.5,3-2.5,5.2c0,3.9,2.4,6.1,7.3,6.7l3.4,0.4c1.7,0.2,3,0.6,3.8,1.3c0.8,0.7,1.2,1.6,1.2,2.9c0,2.9-2.2,4.3-6.5,4.3
		c-2.1,0-3.7-0.4-4.8-1.1c-1.1-0.7-1.7-1.9-1.9-3.5h-3.2c0.2,2.4,1.1,4.3,2.7,5.5c1.6,1.3,4,1.9,7,1.9c3.1,0,5.5-0.6,7.2-1.9
		s2.6-3.1,2.6-5.4C362.3,26.4,359.9,24.1,354.9,23.5z"/>
	<path d="M38.1,28.4c0,1.7-0.5,3-1.4,3.9s-2.3,1.4-4,1.4c-1.7,0-3.1-0.5-4-1.4c-0.9-0.9-1.4-2.2-1.4-3.9v-16h-4.8v16.2
		c0,1.9,0.4,3.5,1.3,4.9c0.8,1.4,2,2.5,3.6,3.2c1.5,0.8,3.3,1.1,5.3,1.1c2.1,0,3.8-0.4,5.4-1.1s2.8-1.8,3.6-3.2
		c0.8-1.4,1.3-3,1.3-4.9V12.4h-4.8V28.4z"/>
	<path d="M64.7,14.5c-1.6-1.4-3.8-2.1-6.6-2.1H47.2v25.3H52v-9.6h5.9c3,0,5.2-0.7,6.8-2.1c1.6-1.4,2.4-3.3,2.4-5.7
		C67.1,17.8,66.3,15.8,64.7,14.5z M58.3,23.9H52v-7.3h6.3c1.3,0,2.3,0.3,3,0.9c0.7,0.6,1.1,1.5,1.1,2.8C62.3,22.7,61,23.9,58.3,23.9
		z"/>
	<polygon points="85.6,22.8 75,22.8 75,12.4 70.2,12.4 70.2,37.7 75,37.7 75,27 85.6,27 85.6,37.7 90.4,37.7 90.4,12.4 85.6,12.4 	
		"/>
	<path d="M105.1,11.9c-3.3,0-5.9,0.9-7.7,2.8c-1.9,1.8-2.8,4.6-2.8,8.3v4c0,3.7,0.9,6.5,2.7,8.3c1.8,1.9,4.4,2.8,7.7,2.8
		c3.3,0,5.9-0.9,7.7-2.8c1.9-1.9,2.8-4.6,2.8-8.3v-4c0-3.7-0.9-6.5-2.8-8.3S108.4,11.9,105.1,11.9z M110.8,26.9
		c0,4.6-1.9,6.8-5.6,6.8c-1.9,0-3.4-0.6-4.3-1.7c-0.9-1.1-1.4-2.8-1.4-5.2v-3.6c0-2.4,0.5-4.2,1.4-5.4c0.9-1.2,2.4-1.8,4.3-1.8
		c3.8,0,5.6,2.4,5.6,7.1V26.9z"/>
	<path d="M138,24.6c0.9-1.2,1.3-2.7,1.3-4.5c0-2.5-0.8-4.4-2.4-5.7c-1.6-1.3-3.8-2-6.5-2h-11v25.3h4.8v-9.9h5l5.5,9.9h5.7l-6.3-10.5
		C135.8,26.6,137.1,25.8,138,24.6z M130.5,23.6h-6.3v-7.1h6.3c1.3,0,2.3,0.3,3,0.9c0.7,0.6,1.1,1.5,1.1,2.6
		C134.5,22.5,133.2,23.6,130.5,23.6z"/>
	<rect x="143.5" y="12.4" width="4.8" height="25.3"/>
	<path d="M170.9,14.2c-1.8-1.5-4.3-2.3-7.4-2.3c-3.4,0-6,0.9-7.9,2.8c-1.9,1.8-2.9,4.6-2.9,8.3v4c0,3.7,0.9,6.5,2.8,8.3
		c1.9,1.9,4.5,2.8,7.9,2.8c3.1,0,5.6-0.8,7.4-2.3c1.8-1.5,2.7-3.7,2.7-6.5v-0.2h-4.8v0.2c0,1.4-0.5,2.5-1.4,3.3
		c-0.9,0.8-2.3,1.2-3.9,1.2c-2,0-3.5-0.6-4.5-1.7c-1-1.1-1.5-2.8-1.5-5.2v-3.6c0-2.4,0.5-4.2,1.5-5.4c1-1.2,2.5-1.8,4.5-1.8
		c1.7,0,3,0.4,4,1.2c0.9,0.8,1.4,1.9,1.4,3.3v0.1h4.8v-0.3C173.7,17.9,172.8,15.7,170.9,14.2z"/>
	<polygon points="0.9,12.4 0.9,16.6 0.9,22.8 0.9,30.5 0.9,37.7 19,37.7 19,33.5 5.7,33.5 5.7,27 17.1,27 17.1,22.8 5.7,22.8 
		5.1,22.8 5.1,16.6 5.7,16.6 19,16.6 19,12.4 5.1,12.4 	"/>
</g>
</svg>
